<svg width="97" height="88" viewBox="0 0 97 88" fill="none" xmlns="http://www.w3.org/2000/svg">
<g filter="url(#filter0_d_1_5)">
<rect x="4" width="80" height="80" rx="15" fill="#57534E"/>
</g>
<g filter="url(#filter1_d_1_5)">
<path d="M36.0771 11.2881L43.501 7.57617V8.75879L38.4287 11.2812L43.501 13.8311V15L36.0771 11.2881ZM51.9092 11.2881L44.4854 15V13.8174L49.5645 11.2949L44.4854 8.74512V7.57617L51.9092 11.2881ZM34.6211 33.877C33.8281 34.1732 33.1172 34.3213 32.4883 34.3213C31.6589 34.3213 30.8955 34.1003 30.1982 33.6582C29.501 33.2116 28.9587 32.5508 28.5713 31.6758C28.1839 30.7962 27.9902 29.8027 27.9902 28.6953C27.9902 27.597 28.1816 26.6104 28.5645 25.7354C28.9473 24.8604 29.4873 24.1973 30.1846 23.7461C30.8818 23.2949 31.6497 23.0693 32.4883 23.0693C33.1172 23.0693 33.8281 23.2174 34.6211 23.5137V24.7715C33.8874 24.3477 33.1582 24.1357 32.4336 24.1357C31.8867 24.1357 31.3854 24.3226 30.9297 24.6963C30.4785 25.07 30.1139 25.6191 29.8359 26.3438C29.5579 27.0638 29.4189 27.8477 29.4189 28.6953C29.4189 29.5566 29.5625 30.3519 29.8496 31.0811C30.1367 31.8102 30.5036 32.3571 30.9502 32.7217C31.3968 33.0817 31.8913 33.2617 32.4336 33.2617C33.1536 33.2617 33.8828 33.0498 34.6211 32.626V33.877ZM39.7959 34.2119C38.7021 34.2119 37.8271 33.8314 37.1709 33.0703C36.5146 32.3047 36.1865 31.3408 36.1865 30.1787C36.1865 29.0166 36.5146 28.055 37.1709 27.2939C37.8271 26.5329 38.7021 26.1523 39.7959 26.1523C40.8851 26.1523 41.7578 26.5329 42.4141 27.2939C43.0703 28.055 43.3984 29.0166 43.3984 30.1787C43.3984 31.3408 43.0703 32.3047 42.4141 33.0703C41.7578 33.8314 40.8851 34.2119 39.7959 34.2119ZM39.7959 33.1523C40.4749 33.1523 41.015 32.888 41.416 32.3594C41.8171 31.8307 42.0176 31.1038 42.0176 30.1787C42.0176 29.2581 41.8171 28.5335 41.416 28.0049C41.015 27.4762 40.4749 27.2119 39.7959 27.2119C39.1123 27.2119 38.57 27.4762 38.1689 28.0049C37.7679 28.5335 37.5674 29.2581 37.5674 30.1787C37.5674 31.1038 37.7679 31.8307 38.1689 32.3594C38.57 32.888 39.1123 33.1523 39.7959 33.1523ZM50.1592 32.2842C49.7718 32.9222 49.3047 33.403 48.7578 33.7266C48.2155 34.0501 47.7165 34.2119 47.2607 34.2119C46.6227 34.2119 46.0485 33.9362 45.5381 33.3848C45.0322 32.8333 44.7793 31.9971 44.7793 30.876C44.7793 29.9919 44.9479 29.2035 45.2852 28.5107C45.6224 27.8135 46.0736 27.2643 46.6387 26.8633C47.2038 26.4577 47.9033 26.2549 48.7373 26.2549C48.9788 26.2549 49.3434 26.2799 49.8311 26.3301C49.904 26.3392 50.0133 26.3506 50.1592 26.3643V22.9668H51.4375V34H50.1592V32.2842ZM50.1592 30.7734V27.499C49.708 27.3805 49.2887 27.3213 48.9014 27.3213C48.1175 27.3213 47.4635 27.6243 46.9395 28.2305C46.4199 28.8366 46.1602 29.6615 46.1602 30.7051C46.1602 31.4616 46.3014 32.0335 46.584 32.4209C46.8711 32.8037 47.1969 32.9951 47.5615 32.9951C47.958 32.9951 48.3955 32.7946 48.874 32.3936C49.3525 31.9925 49.7809 31.4525 50.1592 30.7734ZM59.8184 33.4941C58.8021 33.9772 57.8405 34.2188 56.9336 34.2188C56.2454 34.2188 55.6302 34.0479 55.0879 33.7061C54.5456 33.3643 54.1104 32.8766 53.7822 32.2432C53.4587 31.6051 53.2969 30.9238 53.2969 30.1992C53.2969 29.502 53.4518 28.832 53.7617 28.1895C54.0716 27.5469 54.5046 27.0479 55.0605 26.6924C55.6165 26.3324 56.2363 26.1523 56.9199 26.1523C57.8268 26.1523 58.5537 26.4759 59.1006 27.123C59.652 27.7702 59.9277 28.7682 59.9277 30.1172V30.3906H54.6641C54.6641 30.9193 54.7734 31.4023 54.9922 31.8398C55.2155 32.2773 55.5072 32.6055 55.8672 32.8242C56.2272 33.043 56.6374 33.1523 57.0977 33.1523C57.918 33.1523 58.8249 32.8789 59.8184 32.332V33.4941ZM54.7393 29.4404H58.5469V29.2559C58.5469 28.6315 58.3942 28.1348 58.0889 27.7656C57.7835 27.3965 57.3757 27.2119 56.8652 27.2119C56.3503 27.2119 55.9036 27.401 55.5254 27.7793C55.1517 28.153 54.8896 28.7067 54.7393 29.4404ZM17.4834 51.8311V53H11.7549V42.3906H17.374V43.457H13.1357V47.0596H16.9502V48.1191H13.1357V51.8311H17.4834ZM20.6279 53H19.1582L22.1592 49.001L19.3564 45.3643H20.9834L22.9727 47.9277L24.9072 45.3643H26.3496L23.6973 48.8779L26.8486 53H25.2148L22.8906 49.958L20.6279 53ZM33.2607 51.2842C32.8734 51.9222 32.4062 52.403 31.8594 52.7266C31.3171 53.0501 30.818 53.2119 30.3623 53.2119C29.7243 53.2119 29.1501 52.9362 28.6396 52.3848C28.1338 51.8333 27.8809 50.9971 27.8809 49.876C27.8809 48.9919 28.0495 48.2035 28.3867 47.5107C28.724 46.8135 29.1751 46.2643 29.7402 45.8633C30.3053 45.4577 31.0049 45.2549 31.8389 45.2549C32.0804 45.2549 32.445 45.2799 32.9326 45.3301C33.0055 45.3392 33.1149 45.3506 33.2607 45.3643H34.5391V50.7578C34.5391 51.6784 34.6348 52.4258 34.8262 53H33.5C33.3997 52.5807 33.32 52.0088 33.2607 51.2842ZM33.2607 49.7734V46.499C32.8096 46.3805 32.3903 46.3213 32.0029 46.3213C31.2191 46.3213 30.5651 46.6243 30.041 47.2305C29.5215 47.8366 29.2617 48.6615 29.2617 49.7051C29.2617 50.4616 29.403 51.0335 29.6855 51.4209C29.9727 51.8037 30.2985 51.9951 30.6631 51.9951C31.0596 51.9951 31.4971 51.7946 31.9756 51.3936C32.4541 50.9925 32.8825 50.4525 33.2607 49.7734ZM36.0771 53V45.3643H37.1914V47.1143C37.5423 46.3714 37.8682 45.8587 38.1689 45.5762C38.4743 45.2936 38.7819 45.1523 39.0918 45.1523C39.4609 45.1523 39.7572 45.2982 39.9805 45.5898C40.2083 45.877 40.3223 46.2871 40.3223 46.8203V47.2305C40.4727 46.7656 40.6527 46.3896 40.8623 46.1025C41.0765 45.8109 41.2975 45.5807 41.5254 45.4121C41.7533 45.2389 42.0153 45.1523 42.3115 45.1523C42.6396 45.1523 42.9199 45.2913 43.1523 45.5693C43.3848 45.8473 43.501 46.401 43.501 47.2305V53H42.3867V47.7842C42.3867 47.3558 42.373 47.0641 42.3457 46.9092C42.3184 46.7497 42.2637 46.6289 42.1816 46.5469C42.0996 46.4648 42.0107 46.4238 41.915 46.4238C41.6781 46.4238 41.4229 46.6061 41.1494 46.9707C40.8805 47.3307 40.6048 47.93 40.3223 48.7686V53H39.2559V47.791C39.2559 47.1165 39.1898 46.7201 39.0576 46.6016C38.9255 46.4831 38.807 46.4238 38.7021 46.4238C38.4697 46.4238 38.2191 46.6266 37.9502 47.0322C37.6859 47.4378 37.4329 47.9574 37.1914 48.5908V53H36.0771ZM46.2354 47.0801C46.6273 46.4421 47.0944 45.9613 47.6367 45.6377C48.179 45.3141 48.6781 45.1523 49.1338 45.1523C49.7718 45.1523 50.346 45.4281 50.8564 45.9795C51.3669 46.5309 51.6221 47.3672 51.6221 48.4883C51.6221 49.3724 51.4512 50.1631 51.1094 50.8604C50.7721 51.5531 50.321 52.1022 49.7559 52.5078C49.1908 52.9089 48.4912 53.1094 47.6572 53.1094C47.4202 53.1094 47.0557 53.0843 46.5635 53.0342C46.4906 53.0251 46.3812 53.0137 46.2354 53V55.9668H44.9639V45.3643H46.2354V47.0801ZM46.2354 48.5908V51.8652C46.6956 51.9837 47.1195 52.043 47.5068 52.043C48.277 52.043 48.9242 51.7422 49.4482 51.1406C49.9769 50.5345 50.2412 49.7074 50.2412 48.6592C50.2412 47.8981 50.0977 47.3262 49.8105 46.9434C49.5234 46.5605 49.1976 46.3691 48.833 46.3691C48.4365 46.3691 47.999 46.5697 47.5205 46.9707C47.0465 47.3717 46.6182 47.9118 46.2354 48.5908ZM55.5186 53V43.0332H53.2354V41.9668H56.79V51.9404H59.1758V53H55.5186ZM68.2266 52.4941C67.2103 52.9772 66.2487 53.2188 65.3418 53.2188C64.6536 53.2188 64.0384 53.0479 63.4961 52.7061C62.9538 52.3643 62.5186 51.8766 62.1904 51.2432C61.8669 50.6051 61.7051 49.9238 61.7051 49.1992C61.7051 48.502 61.86 47.832 62.1699 47.1895C62.4798 46.5469 62.9128 46.0479 63.4688 45.6924C64.0247 45.3324 64.6445 45.1523 65.3281 45.1523C66.235 45.1523 66.9619 45.4759 67.5088 46.123C68.0602 46.7702 68.3359 47.7682 68.3359 49.1172V49.3906H63.0723C63.0723 49.9193 63.1816 50.4023 63.4004 50.8398C63.6237 51.2773 63.9154 51.6055 64.2754 51.8242C64.6354 52.043 65.0456 52.1523 65.5059 52.1523C66.3262 52.1523 67.2331 51.8789 68.2266 51.332V52.4941ZM63.1475 48.4404H66.9551V48.2559C66.9551 47.6315 66.8024 47.1348 66.4971 46.7656C66.1917 46.3965 65.7839 46.2119 65.2734 46.2119C64.7585 46.2119 64.3118 46.401 63.9336 46.7793C63.5599 47.153 63.2979 47.7067 63.1475 48.4404ZM70.373 52.5967V51.25C70.8835 51.5827 71.4235 51.8174 71.9932 51.9541C72.5628 52.0863 73.0459 52.1523 73.4424 52.1523C74.085 52.1523 74.5475 52.0498 74.8301 51.8447C75.1126 51.6351 75.2539 51.3753 75.2539 51.0654C75.2539 50.8604 75.1878 50.6849 75.0557 50.5391C74.9235 50.3932 74.5954 50.2132 74.0713 49.999L73.6338 49.8213L72.752 49.4727C71.804 49.1035 71.207 48.7617 70.9609 48.4473C70.7103 48.1374 70.585 47.7591 70.585 47.3125C70.585 46.6836 70.8265 46.1663 71.3096 45.7607C71.7972 45.3551 72.5856 45.1523 73.6748 45.1523C74.4906 45.1523 75.263 45.2708 75.9922 45.5078V46.6631C75.1536 46.3623 74.3652 46.2119 73.627 46.2119C73.0892 46.2119 72.6676 46.3076 72.3623 46.499C72.0615 46.6859 71.9111 46.9206 71.9111 47.2031C71.9111 47.4766 72.0433 47.6953 72.3076 47.8594C72.5674 48.0234 72.9912 48.2126 73.5791 48.4268L74.4404 48.7412C75.2288 49.0283 75.7826 49.3405 76.1016 49.6777C76.4206 50.015 76.5801 50.4365 76.5801 50.9424C76.5801 51.6032 76.3249 52.1478 75.8145 52.5762C75.3086 53 74.4974 53.2119 73.3809 53.2119C72.4056 53.2119 71.403 53.0068 70.373 52.5967ZM31.873 68.2881L39.2969 64.5762V65.7588L34.2246 68.2812L39.2969 70.8311V72L31.873 68.2881ZM41.2725 72.3213H40.0215L46.7686 61.0762H47.9785L41.2725 72.3213ZM56.1133 68.2881L48.6895 72V70.8174L53.7686 68.2949L48.6895 65.7451V64.5762L56.1133 68.2881Z" fill="#38BDF8"/>
</g>
<defs>
<filter id="filter0_d_1_5" x="0" y="0" width="88" height="88" filterUnits="userSpaceOnUse" color-interpolation-filters="sRGB">
<feFlood flood-opacity="0" result="BackgroundImageFix"/>
<feColorMatrix in="SourceAlpha" type="matrix" values="0 0 0 0 0 0 0 0 0 0 0 0 0 0 0 0 0 0 127 0" result="hardAlpha"/>
<feOffset dy="4"/>
<feGaussianBlur stdDeviation="2"/>
<feComposite in2="hardAlpha" operator="out"/>
<feColorMatrix type="matrix" values="0 0 0 0 0 0 0 0 0 0 0 0 0 0 0 0 0 0 0.25 0"/>
<feBlend mode="normal" in2="BackgroundImageFix" result="effect1_dropShadow_1_5"/>
<feBlend mode="normal" in="SourceGraphic" in2="effect1_dropShadow_1_5" result="shape"/>
</filter>
<filter id="filter1_d_1_5" x="11.7549" y="1.57617" width="84.8252" height="84.7451" filterUnits="userSpaceOnUse" color-interpolation-filters="sRGB">
<feFlood flood-opacity="0" result="BackgroundImageFix"/>
<feColorMatrix in="SourceAlpha" type="matrix" values="0 0 0 0 0 0 0 0 0 0 0 0 0 0 0 0 0 0 127 0" result="hardAlpha"/>
<feOffset dx="10" dy="4"/>
<feGaussianBlur stdDeviation="5"/>
<feComposite in2="hardAlpha" operator="out"/>
<feColorMatrix type="matrix" values="0 0 0 0 0.666667 0 0 0 0 0.666667 0 0 0 0 0.666667 0 0 0 0.25 0"/>
<feBlend mode="normal" in2="BackgroundImageFix" result="effect1_dropShadow_1_5"/>
<feBlend mode="normal" in="SourceGraphic" in2="effect1_dropShadow_1_5" result="shape"/>
</filter>
</defs>
</svg>
